<svg xmlns="http://www.w3.org/2000/svg" viewBox="0 0 256 256" width="256" height="256" role="img" aria-label="SysGreen leaf">
  <defs>
    <linearGradient id="g" x1="15%" y1="0%" x2="85%" y2="100%">
      <stop offset="0%" stop-color="#7CC576"/>
      <stop offset="100%" stop-color="#1B7A3D"/>
    </linearGradient>
  </defs>
  <path d="M128 26 L129.33 28.25 L130.77 30.31 L132.25 32.31 L133.74 34.27 L135.22 36.2 L136.7 38.1 L138.16 39.98 L139.61 41.83 L141.02 43.67 L142.4 45.48 L143.75 47.27 L145.06 49.04 L146.32 50.79 L147.53 52.52 L148.68 54.21 L149.78 55.88 L150.81 57.53 L151.78 59.13 L152.67 60.71 L153.49 62.24 L154.23 63.74 L154.89 65.18 L155.46 66.58 L155.95 67.92 L156.34 69.2 L156.64 70.4 L156.86 71.54 L156.97 72.59 L157 73.55 L156.94 74.42 L156.8 75.18 L156.58 75.83 L156.3 76.36 L155.96 76.78 L155.57 77.07 L155.16 77.26 L154.72 77.33 L154.28 77.3 L153.84 77.18 L153.42 77 L153.02 76.77 L152.65 76.51 L152.3 76.24 L151.97 75.98 L151.65 75.75 L151.33 75.56 L151.01 75.43 L150.67 75.36 L150.3 75.36 L149.89 75.43 L149.44 75.57 L148.93 75.79 L148.37 76.07 L147.74 76.43 L147.04 76.84 L146.27 77.32 L145.43 77.86 L144.52 78.45 L143.54 79.09 L142.49 79.78 L141.36 80.51 L140.17 81.28 L138.92 82.09 L137.6 82.94 L136.21 83.82 L134.77 84.74 L133.27 85.68 L131.72 86.66 L130.12 87.66 L128.47 88.69 L126.77 89.75 L125.04 90.83 L123.26 91.94 L121.45 93.07 L119.61 94.22 L117.74 95.4 L115.84 96.6 L113.92 97.82 L111.98 99.06 L110.03 100.32 L108.06 101.61 L106.08 102.92 L104.09 104.25 L102.1 105.6 L100.1 106.97 L98.11 108.37 L96.12 109.79 L94.14 111.23 L92.16 112.7 L90.2 114.19 L88.25 115.71 L86.32 117.26 L84.41 118.83 L82.52 120.44 L80.66 122.07 L78.82 123.74 L77.01 125.44 L75.23 127.18 L73.48 128.96 L71.78 130.78 L70.11 132.64 L68.48 134.55 L66.9 136.51 L65.37 138.52 L63.89 140.59 L62.47 142.73 L61.12 144.92 L59.83 147.19 L58.62 149.52 L57.5 151.93 L56.48 154.41 L55.56 156.96 L54.76 159.58 L54.09 162.26 L53.57 165 L53.2 167.78 L52.99 170.59 L52.96 173.41 L53.1 176.22 L53.42 179 L53.92 181.73 L54.58 184.4 L55.41 186.98 L56.39 189.46 L57.49 191.82 L58.72 194.08 L60.05 196.21 L61.48 198.23 L62.98 200.13 L64.56 201.92 L66.19 203.6 L67.87 205.19 L69.61 206.69 L71.38 208.1 L73.19 209.45 L75.05 210.72 L76.93 211.93 L78.85 213.08 L80.8 214.19 L82.78 215.24 L84.79 216.26 L86.83 217.23 L88.9 218.18 L91 219.08 L93.12 219.96 L95.28 220.82 L97.45 221.64 L99.66 222.44 L101.88 223.22 L104.14 223.98 L106.41 224.72 L108.7 225.43 L111.02 226.13 L113.36 226.8 L115.72 227.45 L118.09 228.07 L120.5 228.66 L122.93 229.21 L125.4 229.7 L128 230 L128 230 L126.67 227.75 L125.23 225.69 L123.75 223.69 L122.26 221.73 L120.78 219.8 L119.3 217.9 L117.84 216.02 L116.39 214.17 L114.98 212.33 L113.6 210.52 L112.25 208.73 L110.94 206.96 L109.68 205.21 L108.47 203.48 L107.32 201.79 L106.22 200.12 L105.19 198.47 L104.22 196.87 L103.33 195.29 L102.51 193.76 L101.77 192.26 L101.11 190.82 L100.54 189.42 L100.05 188.08 L99.66 186.8 L99.36 185.6 L99.14 184.46 L99.03 183.41 L99 182.45 L99.06 181.58 L99.2 180.82 L99.42 180.17 L99.7 179.64 L100.04 179.22 L100.43 178.93 L100.84 178.74 L101.28 178.67 L101.72 178.7 L102.16 178.82 L102.58 179 L102.98 179.23 L103.35 179.49 L103.7 179.76 L104.03 180.02 L104.35 180.25 L104.67 180.44 L104.99 180.57 L105.33 180.64 L105.7 180.64 L106.11 180.57 L106.56 180.43 L107.07 180.21 L107.63 179.93 L108.26 179.57 L108.96 179.16 L109.73 178.68 L110.57 178.14 L111.48 177.55 L112.46 176.91 L113.51 176.22 L114.64 175.49 L115.83 174.72 L117.08 173.91 L118.4 173.06 L119.79 172.18 L121.23 171.26 L122.73 170.32 L124.28 169.34 L125.88 168.34 L127.53 167.31 L129.23 166.25 L130.96 165.17 L132.74 164.06 L134.55 162.93 L136.39 161.78 L138.26 160.6 L140.16 159.4 L142.08 158.18 L144.02 156.94 L145.97 155.68 L147.94 154.39 L149.92 153.08 L151.91 151.75 L153.9 150.4 L155.9 149.03 L157.89 147.63 L159.88 146.21 L161.86 144.77 L163.84 143.3 L165.8 141.81 L167.75 140.29 L169.68 138.74 L171.59 137.17 L173.48 135.56 L175.34 133.93 L177.18 132.26 L178.99 130.56 L180.77 128.82 L182.52 127.04 L184.22 125.22 L185.89 123.36 L187.52 121.45 L189.1 119.49 L190.63 117.48 L192.11 115.41 L193.53 113.27 L194.88 111.08 L196.17 108.81 L197.38 106.48 L198.5 104.07 L199.52 101.59 L200.44 99.04 L201.24 96.42 L201.91 93.74 L202.43 91 L202.8 88.22 L203.01 85.41 L203.04 82.59 L202.9 79.78 L202.58 77 L202.08 74.27 L201.42 71.6 L200.59 69.02 L199.61 66.54 L198.51 64.18 L197.28 61.92 L195.95 59.79 L194.52 57.77 L193.02 55.87 L191.44 54.08 L189.81 52.4 L188.13 50.81 L186.39 49.31 L184.62 47.9 L182.81 46.55 L180.95 45.28 L179.07 44.07 L177.15 42.92 L175.2 41.81 L173.22 40.76 L171.21 39.74 L169.17 38.77 L167.1 37.82 L165 36.92 L162.88 36.04 L160.72 35.18 L158.55 34.36 L156.34 33.56 L154.12 32.78 L151.86 32.02 L149.59 31.28 L147.3 30.57 L144.98 29.87 L142.64 29.2 L140.28 28.55 L137.91 27.93 L135.5 27.34 L133.07 26.79 L130.6 26.3 L128 26 Z" fill="url(#g)"/>
  <path d="M163.36 51.5 L164.72 52.78 L166.02 54.05 L167.27 55.33 L168.45 56.6 L169.57 57.88 L170.63 59.15 L171.62 60.43 L172.55 61.7 L173.41 62.98 L174.19 64.25 L174.91 65.53 L175.55 66.8 L176.12 68.08 L176.62 69.35 L177.04 70.63 L177.38 71.9 L177.65 73.18 L177.85 74.45 L177.96 75.73 L178 77 L177.96 78.28 L177.85 79.55 L177.65 80.83 L177.38 82.1 L177.04 83.38 L176.62 84.65 L176.12 85.93 L175.55 87.2 L174.91 88.48 L174.19 89.75 L173.41 91.03 L172.55 92.3 L171.62 93.58 L170.63 94.85 L169.57 96.13 L168.45 97.4 L167.27 98.68 L166.02 99.95 L164.72 101.23 L163.36 102.5 L161.94 103.78 L160.47 105.05 L158.95 106.33 L157.39 107.6 L155.78 108.88 L154.12 110.15 L152.43 111.43 L150.7 112.7 L148.93 113.98 L147.13 115.25 L145.31 116.53 L143.45 117.8 L141.57 119.08 L139.67 120.35 L137.75 121.63 L135.82 122.9 L133.88 124.18 L131.92 125.45 L129.96 126.73 L128 128 L126.04 129.28 L124.08 130.55 L122.12 131.83 L120.18 133.1 L118.25 134.38 L116.33 135.65 L114.43 136.93 L112.55 138.2 L110.69 139.48 L108.87 140.75 L107.07 142.03 L105.3 143.3 L103.57 144.58 L101.88 145.85 L100.22 147.13 L98.61 148.4 L97.05 149.68 L95.53 150.95 L94.06 152.23 L92.64 153.5 L91.28 154.78 L89.98 156.05 L88.73 157.33 L87.55 158.6 L86.43 159.88 L85.37 161.15 L84.38 162.43 L83.45 163.7 L82.59 164.98 L81.81 166.25 L81.09 167.53 L80.45 168.8 L79.88 170.08 L79.38 171.35 L78.96 172.63 L78.62 173.9 L78.35 175.18 L78.15 176.45 L78.04 177.73 L78 179 L78.04 180.28 L78.15 181.55 L78.35 182.83 L78.62 184.1 L78.96 185.38 L79.38 186.65 L79.88 187.93 L80.45 189.2 L81.09 190.48 L81.81 191.75 L82.59 193.03 L83.45 194.3 L84.38 195.58 L85.37 196.85 L86.43 198.13 L87.55 199.4 L88.73 200.68 L89.98 201.95 L91.28 203.23 " fill="none" stroke="#EAF7E6" stroke-width="7" stroke-linecap="round" stroke-opacity="0.85"/>
</svg>
